<?xml version="1.0" encoding="utf-8"?>
<!-- Generator: Adobe Illustrator 24.0.2, SVG Export Plug-In . SVG Version: 6.00 Build 0)  -->
<svg version="1.1" id="Layer_2" xmlns="http://www.w3.org/2000/svg" xmlns:xlink="http://www.w3.org/1999/xlink" x="0px" y="0px"
	 viewBox="0 0 1200 1200" style="enable-background:new 0 0 1200 1200;" xml:space="preserve">
<style type="text/css">
	.st0{fill:#A4D1C1;}
	.st1{fill:#4E40E6;}
	.st2{fill:#C9F5E6;}
	.st3{fill:#6CE5B4;}
	.st4{fill:#2C215F;}
	.st5{fill:#F1C3B7;}
	.st6{fill:#2F6E73;}
	.st7{fill:#B3B3FF;}
	.st8{fill:#2A272A;}
	.st9{fill:#F2CE70;}
	.st10{fill:#231F20;}
	.st11{fill:#9F9FF4;}
	.st12{fill:#E76336;}
	.st13{fill:#204B52;}
	.st14{fill:#EF928F;}
	.st15{fill:#FFFFFF;stroke:#231F20;stroke-linecap:round;stroke-linejoin:round;stroke-miterlimit:10;}
	.st16{fill:#FFFFFF;}
</style>
<g>
	<path class="st0" d="M931.81,461.28l-1.46-1.54C821.52,344.55,677.04,301.83,675.6,301.41l-0.64-0.19v-88.62l1.01,0.14
		c0.76,0.11,76.96,10.94,140.36,45.17c79.72,43.05,118.99,88.29,119.38,88.75l0.23,0.26l-0.01,0.34L931.81,461.28z M676.73,299.9
		c10.59,3.21,148.19,46.61,253.46,157.09l3.94-109.42c-3.3-3.73-42.37-46.89-118.65-88.08c-59.15-31.94-129.53-43.43-138.75-44.83
		V299.9z"/>
	<path class="st1" d="M786.92,171.77c0,0,0,30.59,1.61,61.17c0.82,15.67-1.61,59.56-1.61,59.56s40.87,14.37,94.98,51.52
		c36.33,24.94,78.88,59.56,112.69,91.76c0,0,6.44-41.83,6.44-90.15c0-57.95-3.22-66-3.22-66S977,252,895,212
		C863.88,196.82,821,180,786.92,171.77z"/>
	<path class="st2" d="M684.17,276.21l0.98,62.41c11.62,4.07,24.11,8.79,37.39,14.26v-64.86
		C710.43,283.74,697.82,279.74,684.17,276.21z"/>
	<path class="st1" d="M580.86,261.92l1.61,51.52c0,0,31.26,2.08,85.32,19.37v-60.48C643.24,267.01,615.12,263.24,580.86,261.92z"/>
	<path class="st3" d="M873.85,364.95c0,0-33.81-30.59-114.3-62.78c-8.44-3.38-16.86-6.71-25.46-9.93v65.51
		c11.44,4.92,23.42,10.39,35.9,16.45c36.54,17.76,82.61,44.14,105.46,71.24c0,0,0-17.71,0-43.47
		C875.46,379.44,873.85,364.95,873.85,364.95z"/>
	<path class="st3" d="M1062.74,520.83c0,0,64.39,21.11,76.74,72.72v90.15c0,0-11.53-8.55-19.32-42.39
		c-5.91-25.68-32.74-40.34-54.2-51.08L1062.74,520.83z"/>
	<path class="st4" d="M1131.43,452.77c-0.25,0-0.51-0.11-0.68-0.32c-36.07-43.67-104.79-97.77-204.24-160.8
		c-9.17-5.81-18.71-11.53-28.37-16.99c-0.43-0.24-0.58-0.78-0.34-1.21c0.24-0.43,0.79-0.58,1.21-0.34
		c9.68,5.48,19.25,11.21,28.44,17.04c99.61,63.13,168.47,117.36,204.66,161.17c0.31,0.38,0.26,0.94-0.12,1.25
		C1131.83,452.71,1131.63,452.77,1131.43,452.77z"/>
	<path class="st4" d="M888.06,268.93c-0.14,0-0.29-0.03-0.42-0.11c-1.45-0.79-2.9-1.57-4.35-2.35c-1.66-0.89-3.31-1.76-4.96-2.63
		c-1.38-0.72-2.75-1.44-4.12-2.14c-3.01-1.55-6-3.07-8.97-4.56c-0.44-0.22-0.62-0.75-0.4-1.19c0.22-0.44,0.75-0.62,1.19-0.4
		c2.98,1.49,5.98,3.01,8.99,4.57c1.37,0.71,2.75,1.43,4.13,2.15c1.65,0.87,3.31,1.74,4.97,2.63c1.45,0.78,2.9,1.56,4.36,2.35
		c0.43,0.23,0.59,0.77,0.36,1.2C888.68,268.77,888.37,268.93,888.06,268.93z"/>
	<path class="st4" d="M860.24,254.58c-0.13,0-0.27-0.03-0.39-0.09c-1.07-0.53-2.14-1.05-3.21-1.56l-2.45-1.18
		c-0.44-0.21-0.63-0.74-0.42-1.18s0.74-0.63,1.18-0.42l2.45,1.18c1.07,0.52,2.14,1.04,3.22,1.57c0.44,0.22,0.62,0.75,0.41,1.19
		C860.88,254.4,860.57,254.58,860.24,254.58z"/>
	<path class="st4" d="M849.86,249.6c-0.13,0-0.25-0.03-0.38-0.08c-72.09-33.89-127.71-46.27-130.17-46.27
		c-0.49,0-0.89-0.4-0.89-0.89c0-0.49,0.4-0.89,0.89-0.89c4.4,0,61.86,13.97,130.93,46.44c0.44,0.21,0.63,0.74,0.42,1.18
		C850.51,249.42,850.19,249.6,849.86,249.6z"/>
	<path class="st4" d="M872.24,470.48c-0.22,0-0.44-0.08-0.61-0.24C774.75,378.12,649.54,350,648.29,349.72
		c-0.48-0.1-0.78-0.58-0.68-1.06c0.1-0.48,0.57-0.78,1.06-0.68c1.26,0.27,126.93,28.49,224.19,120.96c0.36,0.34,0.37,0.9,0.03,1.25
		C872.71,470.39,872.48,470.48,872.24,470.48z"/>
	<path class="st4" d="M1033.36,395.73c-0.19,0-0.37-0.06-0.53-0.18c-44.22-33.26-78.56-52.17-78.9-52.36
		c-0.43-0.24-0.59-0.77-0.35-1.2c0.24-0.43,0.78-0.59,1.2-0.35c0.34,0.19,34.79,19.16,79.12,52.49c0.39,0.29,0.47,0.85,0.17,1.24
		C1033.89,395.61,1033.63,395.73,1033.36,395.73z"/>
</g>
<g>
	<path class="st5" d="M464.77,359.47l-36.62-0.81c0.14-6.4-12.09-21.98-18.66-30.34c-11.1-14.13-20.68-26.34-21-39.79
		c-0.65-27.22,26.79-49.01,51-68.23c1.67-1.32,3.31-2.63,4.93-3.92c3.87-3.09,7.83-6.9,12.02-10.93
		c12.03-11.58,25.67-24.7,45.51-29.17l8.04,35.74c-9.85,2.22-18.74,10.77-28.15,19.83c-4.6,4.42-9.35,9-14.53,13.14
		c-1.65,1.32-3.33,2.66-5.03,4.01c-10.07,8-20.49,16.27-28.04,24.32c-7.39,7.87-8.8,12.2-9.06,13.74
		c1.53,3.87,8.47,12.71,13.14,18.66C450.91,321.75,465.21,339.95,464.77,359.47z"/>
	<g>
		<path class="st6" d="M232.67,743.83l0.02,21.13h73.21c0,0,1.28-11.56-24.26-19.22C268.82,741.89,232.67,743.83,232.67,743.83z"/>
		<g>
			<path class="st7" d="M295,402.69c0,0,2.62,12.84,2.36,20.43c-0.14,3.99-0.4,5.84-1.17,6.14c-1.07,0.42-1.88-0.55-1.88-0.55
				s-0.11,4.13-1.82,4.8c-1.64,0.64-2.84-2.47-2.84-2.47s-0.27,4.4-2.59,4.31c-2.43-0.09-3.37-4.71-3.37-4.71s-0.78,2.21-2.65,2.01
				c-1.95-0.21-3.47-6.6-4.28-11.91c-1.07-6.99-3.77-17.27-3.77-17.27l11-2.36L295,402.69z"/>
			<path class="st8" d="M294.62,430.03c-0.01,0-0.02,0-0.03,0c-0.24-0.02-0.43-0.23-0.41-0.48c0.01-0.08,0.6-7.99-0.65-13.13
				c-0.06-0.24,0.09-0.48,0.33-0.54c0.24-0.06,0.48,0.09,0.54,0.33c1.29,5.28,0.7,13.08,0.68,13.41
				C295.04,429.85,294.85,430.03,294.62,430.03z"/>
			<path class="st8" d="M289.85,432.41c-0.01,0-0.02,0-0.03,0c-0.24-0.02-0.43-0.23-0.41-0.47c0-0.08,0.51-8.16-0.86-14.48
				c-0.05-0.24,0.1-0.48,0.34-0.53c0.25-0.05,0.48,0.1,0.53,0.34c1.41,6.45,0.89,14.65,0.88,14.73
				C290.28,432.23,290.08,432.41,289.85,432.41z"/>
			<path class="st8" d="M283.68,432.79c-0.01,0-0.02,0-0.02,0c-0.24-0.01-0.43-0.22-0.42-0.47c0-0.07,0.35-7.08-1.23-15.56
				c-0.04-0.24,0.11-0.47,0.36-0.52c0.25-0.04,0.47,0.12,0.52,0.36c1.6,8.59,1.24,15.7,1.24,15.77
				C284.11,432.61,283.91,432.79,283.68,432.79z"/>
		</g>
		<path class="st7" d="M281.64,232.54c0,0,6.29-10.22,13.88-12.57l0.52,7.07l-5.24,7.6L281.64,232.54z"/>
		<path class="st6" d="M135.11,730.32l-6.86,19.36c0,0,35.44,15.27,45.37,15.27c15.72,0,36.33,0,36.33,0s-1.15-7.5-10.4-13.41
			c-5.33-3.4-13.19-5.46-22.16-8.38C164.66,739.03,135.11,730.32,135.11,730.32z"/>
		<path class="st3" d="M295.87,224.98c-0.45-9.46-1.67-41.9-1.67-41.9s22.42-0.82,31.72-2.67c20.94-4.16,30.69-10.15,30.69-10.15
			s0.44,30.57,1.5,54.45c1.11,25,1.51,49.66,1.51,49.66s-5.06,7.02-22.98,11.69c-14.43,3.76-40.24,5.25-40.24,5.25
			S296.7,242.62,295.87,224.98z"/>
		<g>
			<g>
				<path class="st7" d="M280.7,238.73c0,0,2.35-6.74,17.19-14.93c2.97-1.64,4.34-1.95,8.62-2.3c2.15-0.18,3.99,2.75,3.99,2.75
					s2.62-0.84,3.51,1.42c0.54,1.38-0.63,2.83-0.63,2.83s1.56,0.39,2.13,1.84c0.89,2.28-1.2,3.73-1.2,3.73s0.79,0.84,0.6,1.61
					c-0.26,1.05,0.29,1.53-1.31,2.62c-1.88,1.28-3.41,2.36-5.5,3.93c-1.63,1.23-3.92,4.45-6.03,6.29c-5.48,4.78-9.95,6.29-9.95,6.29
					l-7.17-8.27L280.7,238.73z"/>
				<path class="st8" d="M296.59,231.06c-0.16,0-0.32-0.06-0.43-0.19c-0.22-0.24-0.21-0.61,0.03-0.84
					c4.35-4.05,13.47-6.07,13.86-6.15c0.32-0.07,0.63,0.13,0.7,0.45c0.07,0.32-0.13,0.63-0.45,0.7c-0.09,0.02-9.19,2.04-13.3,5.86
					C296.88,231.01,296.73,231.06,296.59,231.06z"/>
				<path class="st8" d="M300.11,234.7c-0.16,0-0.32-0.06-0.43-0.19c-0.22-0.24-0.21-0.61,0.03-0.84
					c4.37-4.06,13.25-5.43,13.62-5.48c0.32-0.05,0.62,0.17,0.67,0.5c0.05,0.32-0.17,0.62-0.5,0.67c-0.09,0.01-8.89,1.37-12.99,5.18
					C300.4,234.65,300.25,234.7,300.11,234.7z"/>
				<path class="st8" d="M302.88,239.99c-0.16,0-0.32-0.06-0.43-0.19c-0.22-0.24-0.21-0.61,0.03-0.84
					c4.36-4.05,11.28-5.4,11.58-5.46c0.32-0.06,0.63,0.15,0.69,0.47c0.06,0.32-0.15,0.63-0.47,0.69c-0.07,0.01-6.88,1.34-10.99,5.16
					C303.16,239.94,303.02,239.99,302.88,239.99z"/>
			</g>
		</g>
		<path class="st9" d="M221.91,183.81c0,0,7.86-1.18,18.08,11.79c9.02,11.44,21.61,30.26,32.61,64.05
			c11.2,34.39,26.33,148.93,26.33,148.93l-25.15,1.18L221.91,183.81z"/>
		<circle class="st7" cx="201.23" cy="111.99" r="48.45"/>
		<path class="st7" d="M213.13,65.09c0,0,6.69,1.11,15.65,6.26c5.64,3.24,11.11,8.3,15.39,13.39c5.96,7.1,10.04,18.63,13.19,32.28
			c0.27,1.19-0.41,1.68-1.63,1.79l-27.46,2.7L213.13,65.09z"/>
		<path class="st10" d="M205.23,100.46c-0.14,0-0.29-0.03-0.42-0.11c-0.43-0.23-0.59-0.77-0.36-1.2c0.2-0.37,5.05-9.09,14.25-9.59
			c11.11-0.56,15.24,8.03,15.28,8.12c0.21,0.44,0.02,0.97-0.43,1.18c-0.45,0.21-0.97,0.02-1.18-0.42c-0.15-0.31-3.73-7.68-13.58-7.1
			c-8.23,0.45-12.75,8.59-12.79,8.67C205.85,100.29,205.54,100.46,205.23,100.46z"/>
		<circle class="st10" cx="222.98" cy="96.95" r="6.26"/>
		<path class="st8" d="M284.97,745.88l-54.34-1.41c0.03-1.16,3.01-117.09,1.68-186.28c-1.65-85.84-6.05-167.75-6.1-168.57
			l54.28-2.94c0.04,0.83,4.5,83.65,6.17,170.47C288.01,627.57,285.09,741.08,284.97,745.88z"/>
		<path class="st8" d="M186.89,745.16l-53.27-10.8c0.2-1,20.29-100.61,24.82-168.42c5.53-82.62,0.24-173.69,0.19-174.6l54.26-3.22
			c0.23,3.86,5.54,95.44-0.21,181.45C207.9,641.02,187.75,740.94,186.89,745.16z"/>
		<path class="st9" d="M284.25,394.72H153.23c0,0,2.15-40.99,2.15-79.14c0-27.24-5.32-58.21-2.62-78.72
			c3.93-29.86,11.59-37.66,29.03-53.8c10.66-9.86,34.39-11.56,50.4,15.12c15.53,25.88,45.08,100.32,48.72,146.15
			C283.54,377.68,284.25,394.72,284.25,394.72z"/>
		<polygon class="st9" points="208.95,177.53 189.3,168.49 181.78,183.06 210.34,198.74 223.88,184.6 218.77,170.85 		"/>
		<path class="st8" d="M201.87,196.98c-0.12,0-0.24-0.04-0.35-0.11l-18.47-13.36c-0.26-0.19-0.32-0.56-0.13-0.83
			c0.19-0.26,0.56-0.32,0.83-0.13l17.91,12.96l7.54-14.71c0.1-0.2,0.3-0.32,0.52-0.32c0.21,0,0.42,0.12,0.53,0.31l6.98,12.85
			l4.97-8.16c0.17-0.28,0.53-0.37,0.81-0.2c0.28,0.17,0.37,0.53,0.2,0.81l-5.5,9.04c-0.11,0.18-0.3,0.28-0.5,0.28c0,0-0.01,0-0.01,0
			c-0.21-0.01-0.4-0.12-0.5-0.31l-6.93-12.77l-7.35,14.33c-0.08,0.15-0.22,0.26-0.39,0.3C201.96,196.97,201.92,196.98,201.87,196.98
			z"/>
		<path class="st8" d="M239.99,387.17c-0.03,0-0.05,0-0.08-0.01c-0.32-0.04-0.55-0.34-0.51-0.66c5.28-39.3,2.84-77.66-7.46-117.29
			c-0.33-1.28-0.67-2.55-1-3.8c-0.6-2.23-1.19-4.42-1.78-6.53c-0.37-1.33-0.74-2.64-1.11-3.92c-0.09-0.31,0.09-0.64,0.41-0.73
			c0.32-0.09,0.64,0.09,0.73,0.41c0.37,1.28,0.74,2.59,1.11,3.93c0.59,2.12,1.19,4.31,1.79,6.54c0.33,1.26,0.67,2.53,1,3.81
			c10.34,39.78,12.78,78.29,7.48,117.74C240.53,386.95,240.28,387.17,239.99,387.17z"/>
		<path class="st8" d="M226.18,247.1c-0.25,0-0.49-0.16-0.57-0.42c-1.11-3.67-2.21-6.86-3.18-9.68c-0.84-2.45-1.57-4.56-2.02-6.19
			c-8.02-28.86-11.23-49.07-11.26-49.27c-0.05-0.32,0.17-0.62,0.49-0.68c0.32-0.05,0.62,0.17,0.68,0.49
			c0.03,0.2,3.23,20.35,11.23,49.14c0.44,1.59,1.16,3.69,2,6.12c0.97,2.82,2.07,6.03,3.19,9.72c0.09,0.31-0.08,0.64-0.39,0.74
			C226.29,247.09,226.23,247.1,226.18,247.1z"/>
		<path class="st4" d="M211.7,64.52c0,0-2.98,19.57-33.98,29.35c-8.78,2.77-15.44,7.82-17.75,15.52
			c-3.85,12.84,0.82,29.88,0.82,29.88s-25.05-29.37,3.16-60.82C184.91,55.06,211.7,64.52,211.7,64.52z"/>
		<path class="st8" d="M282.03,394.63c-0.3,0-0.56-0.24-0.59-0.55c-0.02-0.2-1.67-21.11-10.21-80.12
			c-8.53-58.95-21.83-90.31-21.96-90.62c-0.13-0.3,0.01-0.65,0.31-0.78c0.3-0.13,0.65,0.01,0.78,0.31
			c0.13,0.31,13.49,31.8,22.05,90.92c8.55,59.07,10.21,80,10.22,80.2c0.03,0.33-0.22,0.61-0.54,0.63
			C282.06,394.63,282.05,394.63,282.03,394.63z"/>
		<path class="st9" d="M210.03,330.86c-5.59,0-11.29-0.84-16.93-2.78c-11.97-4.11-27.79-14.67-35.15-41.64
			c-11.05-40.52,10.47-84.09,12.96-88.92l36.77,18.94L189.3,207l18.41,9.42c-4.7,9.25-15.64,37.92-9.85,59.14
			c1.43,5.25,4.1,11.83,8.67,13.4c4.57,1.56,12.79-0.68,18.7-5.12c2.43-1.94,10.28-10.86,16.01-17.38
			c13.21-15.01,28.18-32.03,40.34-40.14l22.94,34.41c-7.63,5.09-22.43,21.91-32.23,33.04c-10.67,12.13-16.97,19.19-22.24,23.14
			C240.07,324.41,225.5,330.86,210.03,330.86z"/>
		<path class="st8" d="M215.05,283.31c-0.86,0-1.74-0.05-2.63-0.15c-14.35-1.59-25.69-32.6-26.16-33.92
			c-0.11-0.31,0.05-0.65,0.36-0.76c0.31-0.11,0.65,0.05,0.76,0.36c0.11,0.32,11.56,31.63,25.18,33.15
			c12.16,1.37,21.64-7.5,26.2-12.89c1.08-1.27,2.43-2.89,3.95-4.72c6.66-7.99,16.73-20.05,22.29-25.19
			c0.24-0.22,0.61-0.21,0.83,0.03c0.22,0.24,0.21,0.61-0.03,0.83c-5.51,5.09-15.55,17.12-22.19,25.08
			c-1.53,1.83-2.88,3.46-3.96,4.73C235.27,275.04,226.48,283.31,215.05,283.31z"/>
		<path class="st8" d="M219.05,329.73c-4.79,0-10.28-0.62-16.66-2.04c-23.11-5.18-41.72-37.94-41.91-38.27
			c-0.16-0.28-0.06-0.64,0.23-0.8c0.29-0.16,0.65-0.06,0.81,0.23c0.18,0.33,18.54,32.63,41.14,37.7
			c27.37,6.14,38.08-3.04,47.53-11.14c0.94-0.8,1.86-1.6,2.79-2.36c9.44-7.8,15.88-15.59,21.05-21.85c1.42-1.71,2.75-3.32,4.03-4.8
			c0.21-0.25,0.59-0.27,0.83-0.06c0.25,0.21,0.27,0.59,0.06,0.83c-1.28,1.47-2.6,3.08-4.01,4.78c-5.2,6.3-11.68,14.13-21.21,22.01
			c-0.92,0.76-1.84,1.55-2.77,2.35C243.5,322.68,235.27,329.73,219.05,329.73z"/>
		<g>
			<path class="st8" d="M238.94,125.77c0.09-1.36-1.59-2.64-5.21-2.66c-2.87-0.01-4.33,0.61-4.74,2c-0.76,2.62,0.62,9.52,4.81,9.86
				C237.97,135.31,238.77,128.41,238.94,125.77z"/>
			<path class="st1" d="M233.81,134.98c1.96,0.16,3.17-1.3,3.92-3.15c-1.11-0.96-2.5-1.99-3.85-2.48c-2.85-1.04-4.78-0.58-4.78-0.58
				c-0.04,0.01-0.07,0.03-0.11,0.04C229.49,131.64,231.02,134.75,233.81,134.98z"/>
		</g>
	</g>
	<g>
		<path class="st7" d="M426.14,234.59c0,0-10.99-12.79-15.17-11.22c-1.4,0.52-1.04,4.18-1.04,4.18l7.08,9.13L426.14,234.59z"/>
		<g>
			<g>
				<path class="st7" d="M427.08,240.76c0,0-2.34-6.71-17.13-14.87c-2.96-1.63-4.33-1.94-8.59-2.29c-2.14-0.18-3.98,2.74-3.98,2.74
					s-2.61-0.83-3.5,1.41c-0.54,1.37,0.63,2.82,0.63,2.82s-1.56,0.39-2.12,1.84c-0.89,2.27,1.19,3.71,1.19,3.71s-0.79,0.83-0.6,1.61
					c0.26,1.04-0.29,1.53,1.3,2.61c1.88,1.28,3.39,2.35,5.48,3.91c1.63,1.22,3.91,4.44,6,6.26c5.46,4.76,9.92,6.26,9.92,6.26
					l7.14-8.24L427.08,240.76z"/>
				<path class="st8" d="M411.25,233.12c-0.14,0-0.29-0.05-0.4-0.16c-4.1-3.81-13.16-5.82-13.25-5.84c-0.32-0.07-0.52-0.38-0.45-0.7
					c0.07-0.32,0.38-0.52,0.7-0.45c0.38,0.08,9.46,2.09,13.8,6.13c0.24,0.22,0.25,0.6,0.03,0.84
					C411.56,233.06,411.4,233.12,411.25,233.12z"/>
				<path class="st8" d="M407.74,236.74c-0.14,0-0.29-0.05-0.4-0.16c-4.08-3.8-12.85-5.15-12.94-5.16c-0.32-0.05-0.54-0.35-0.5-0.67
					c0.05-0.32,0.35-0.54,0.67-0.5c0.37,0.06,9.22,1.42,13.57,5.46c0.24,0.22,0.25,0.6,0.03,0.84
					C408.06,236.68,407.9,236.74,407.74,236.74z"/>
				<path class="st8" d="M404.99,242.01c-0.14,0-0.29-0.05-0.4-0.16c-4.09-3.8-10.88-5.13-10.95-5.14
					c-0.32-0.06-0.53-0.37-0.47-0.69c0.06-0.32,0.37-0.53,0.69-0.47c0.29,0.06,7.19,1.4,11.53,5.44c0.24,0.22,0.25,0.6,0.03,0.84
					C405.3,241.95,405.14,242.01,404.99,242.01z"/>
			</g>
		</g>
		<circle class="st7" cx="507.28" cy="117.63" r="48.26"/>
		<path class="st7" d="M495.43,70.91c0,0-6.66,1.1-15.59,6.24c-5.62,3.23-11.07,8.26-15.33,13.34c-5.94,7.08-10,18.56-13.14,32.15
			c-0.27,1.19,0.41,1.67,1.62,1.79l27.35,2.69L495.43,70.91z"/>
		<path class="st10" d="M503.3,106.15c-0.31,0-0.62-0.17-0.78-0.46c-0.05-0.08-4.57-8.19-12.74-8.63
			c-9.79-0.53-13.38,6.76-13.52,7.07c-0.21,0.44-0.73,0.63-1.18,0.42c-0.44-0.21-0.63-0.73-0.43-1.18c0.04-0.09,4.16-8.7,15.23-8.09
			c9.17,0.5,14,9.19,14.2,9.56c0.23,0.43,0.07,0.97-0.36,1.2C503.59,106.11,503.44,106.15,503.3,106.15z"/>
		<circle class="st10" cx="485.61" cy="102.66" r="6.24"/>
		<path class="st11" d="M428.03,745.82c-0.03-1.17-3.03-117.74-1.68-187.77c1.66-86.4,6.09-168.81,6.14-169.63l43.66,2.37
			c-0.04,0.81-4.44,82.5-6.08,168.1c-1.33,69.04,1.64,184.64,1.67,185.8L428.03,745.82z"/>
		<path class="st11" d="M525.63,744.2c-0.85-4.19-20.85-103.39-25.59-174.23c-5.71-85.36-0.44-176.27-0.21-180.1l43.65,2.59
			c-0.05,0.91-5.33,92.06,0.19,174.59c4.54,67.91,24.61,167.46,24.82,168.46L525.63,744.2z"/>
		<path class="st5" d="M423.54,396.15h130.52c0,0-6.61-22.21-3.48-73.88c1.64-27.09,5.81-62.85,3.95-83.38
			c-2.38-26.23-14.18-48.25-30.56-57.93c-17.22-10.18-39.64-5.83-55.58,20.75c-15.47,25.78-30.53,82.2-39.14,135.44
			C423.92,370.04,423.54,396.15,423.54,396.15z"/>
		<path class="st8" d="M467.63,388.62c-0.29,0-0.54-0.22-0.58-0.51c-5.28-39.29-2.84-77.66,7.46-117.29c0.33-1.28,0.67-2.55,1-3.8
			c0.6-2.23,1.19-4.41,1.78-6.52c0.37-1.33,0.74-2.63,1.11-3.91c0.09-0.32,0.42-0.5,0.73-0.41c0.31,0.09,0.5,0.42,0.41,0.73
			c-0.37,1.27-0.73,2.57-1.1,3.9c-0.59,2.11-1.18,4.28-1.78,6.51c-0.33,1.25-0.67,2.51-1,3.79c-10.26,39.48-12.69,77.69-7.43,116.83
			c0.04,0.32-0.18,0.62-0.51,0.66C467.68,388.62,467.66,388.62,467.63,388.62z"/>
		<path class="st8" d="M481.39,249.1c-0.06,0-0.11-0.01-0.17-0.03c-0.31-0.09-0.49-0.42-0.39-0.74c1.12-3.68,2.22-6.87,3.18-9.69
			c0.83-2.42,1.55-4.5,1.99-6.08c7.97-28.68,11.16-48.75,11.19-48.95c0.05-0.32,0.36-0.54,0.68-0.49c0.32,0.05,0.54,0.35,0.49,0.68
			c-0.03,0.2-3.23,20.33-11.22,49.08c-0.45,1.62-1.17,3.72-2.01,6.15c-0.97,2.81-2.06,5.99-3.17,9.65
			C481.88,248.93,481.65,249.1,481.39,249.1z"/>
		<path class="st4" d="M496.85,70.34c0,0,2.97,19.5,33.85,29.23c8.75,2.76,15.38,7.79,17.69,15.46c3.84,12.79-0.82,29.76-0.82,29.76
			s24.95-29.25-3.14-60.59C523.54,60.92,496.85,70.34,496.85,70.34z"/>
		<path class="st5" d="M497.47,332.61c-15.43,0-29.96-6.43-39.9-13.89c-5.26-3.95-11.54-10.98-22.17-23.07
			c-9.75-11.08-24.49-27.83-32.08-32.9l22.94-34.41c12.12,8.08,27.03,25.03,40.19,39.99c5.71,6.49,13.52,15.37,16,17.35
			c5.81,4.36,13.96,6.59,18.49,5.04c4.52-1.55,7.16-8.09,8.58-13.3c5.76-21.11-5.13-49.65-9.81-58.86l36.79-18.89
			c2.48,4.82,23.94,48.24,12.92,88.63c-7.34,26.9-23.12,37.43-35.06,41.53C508.73,331.77,503.04,332.61,497.47,332.61z"/>
		<path class="st8" d="M492.51,285.16c-11.32,0-20.13-8.23-24.54-13.39c-1.62-1.89-3.41-4.01-5.31-6.26
			c-8.76-10.35-19.65-23.23-26.37-29.31c-0.24-0.22-0.26-0.59-0.04-0.84c0.22-0.24,0.6-0.26,0.84-0.04
			c6.78,6.13,17.7,19.05,26.48,29.42c1.9,2.24,3.69,4.36,5.31,6.25c4.59,5.37,14.09,14.18,26.1,12.84
			c13.53-1.5,20.92-29.16,20.99-29.44c0.08-0.32,0.4-0.51,0.72-0.42c0.32,0.08,0.5,0.41,0.42,0.72c-0.31,1.17-7.67,28.72-22,30.32
			C494.22,285.11,493.36,285.16,492.51,285.16z"/>
		<path class="st8" d="M492.21,330.66c-8.6,0-16.6-1.89-24.88-5.77c-5.88-2.75-21.09-16.8-34.62-31.98
			c-8.92-10-20.3-22.41-29.29-29.68c-0.25-0.21-0.29-0.58-0.09-0.83c0.2-0.25,0.58-0.29,0.83-0.09
			c9.05,7.33,20.48,19.78,29.43,29.82c14.81,16.61,29.3,29.38,34.24,31.69c12,5.62,23.41,6.97,37,4.39
			c25.44-4.84,37.25-37.9,37.36-38.24c0.11-0.31,0.44-0.47,0.75-0.36c0.31,0.11,0.47,0.44,0.36,0.75
			c-0.12,0.34-12.16,34.04-38.26,39.01C500.58,330.23,496.33,330.66,492.21,330.66z"/>
		<path class="st8" d="M570.16,730.93l7.05,18.79c0,0-37.48,15.24-47.37,15.24c-15.66,0-36.19,0-36.19,0s1.14-7.48,10.36-13.36
			c5.31-3.39,15.24-5.08,24.18-7.98C540.86,739.49,570.16,730.93,570.16,730.93z"/>
		<path class="st8" d="M473.6,744.76l0.78,20.19h-76.46c0,0,1.83-19.15,28.97-19.15C441.52,745.81,473.6,744.76,473.6,744.76z"/>
		<path class="st10" d="M475.65,142.09c-3.15,0-5.41-2.86-6.24-4.58c-0.21-0.44-0.03-0.97,0.41-1.18c0.44-0.21,0.97-0.03,1.18,0.41
			c0.09,0.18,2.18,4.39,5.62,3.44c3.67-1,4.43-7.4,4.44-7.46c0.06-0.49,0.51-0.82,0.98-0.78c0.49,0.05,0.84,0.49,0.78,0.98
			c-0.03,0.31-0.9,7.66-5.74,8.98C476.6,142.02,476.11,142.09,475.65,142.09z"/>
	</g>
	<path class="st12" d="M429.24,335.58c0,0-4.38,23.54-6.26,43.06c-2.41,24.95-4.25,52.17-7.05,64.2
		c-10.41,44.78-28.97,113.52-25.84,143.27c0,0,45.47,15.78,108.82,4.7c62.63-10.96,95.51-7.05,95.51-7.05s0.49-38.8-8.61-76.72
		c-9.39-39.14-18.92-72.14-27.4-99.16c-7.05-22.44-7.83-63.41-7.83-63.41s-32.88,4.44-85.33-0.26
		C444.74,342.35,429.24,335.58,429.24,335.58z"/>
	<path class="st13" d="M498.76,360.98c-6.09,0-12.59-0.16-19.45-0.54c-28.02-1.56-50.87-11.69-51.1-11.79
		c-0.3-0.13-0.43-0.48-0.3-0.78s0.48-0.43,0.78-0.3c0.23,0.1,22.88,10.15,50.68,11.69c41.71,2.31,70.28-3.58,70.57-3.64
		c0.32-0.06,0.63,0.14,0.7,0.46c0.07,0.32-0.14,0.63-0.46,0.7C549.95,356.82,529.82,360.98,498.76,360.98z"/>
	<path class="st8" d="M451.55,251.23c-0.02,0-0.05,0-0.07,0c-0.32-0.04-0.56-0.33-0.52-0.66c0.78-6.67,8.34-23.35,8.66-24.05
		c0.14-0.3,0.49-0.43,0.78-0.29c0.3,0.14,0.43,0.48,0.29,0.78c-0.08,0.17-7.8,17.21-8.56,23.7
		C452.1,251.01,451.85,251.23,451.55,251.23z"/>
	<circle class="st4" cx="555.41" cy="68.09" r="23.09"/>
</g>
<g>
	<path class="st1" d="M249.93,342.34l8.86,146.61c0,0-38.12-3.18-94.54,2.06c-55.46,5.15-93.28,15.44-93.28,15.44l-7.6-146.61
		c0,0,36.37-15.63,83.19-20.59C214.64,332.05,249.93,342.34,249.93,342.34z"/>
	<path class="st3" d="M258.74,569.29c0,0,45.54,2.2,112,40.47c53.66,30.9,62.63,54.36,62.63,54.36l2.57,70.33
		c0,0-22.97-37.78-93.8-77.79c-40.36-22.8-76.54-29.03-76.54-29.03L258.74,569.29z"/>
	<g>
		<path class="st7" d="M218.75,460.6c-4.45,4.75-7.6,11.5-10.81,18.58c-0.48,1.05,0.18,4.31-0.16,5.45
			c-2.08,6.84-1.41,15.35,5.73,15.35h5.47c0,0,16.11-10.99,20.29-17.74s0.62-19.56,0.62-19.56l-5.05-12.88
			C234.83,449.78,222.91,456.16,218.75,460.6z"/>
		<path class="st12" d="M201.28,542.09l-38.25-13.28c13.61-39.21,40.39-56.67,43.4-58.54l21.31,34.42l0.19-0.12
			C227.21,505.05,210.21,516.35,201.28,542.09z"/>
		<path class="st1" d="M333.13,633.12c0,0,20.77-19.48,26.75-44.61c2.11-8.86,2.95-10.04-8.6-73.83
			c-10.28-56.79-22.12-90.49-22.12-90.49l-29.76,9.28l-1.36,46.95L318,552.78L333.13,633.12z"/>
		<path class="st3" d="M325.76,556.41l-2.63-18.63l-9.33-50.63c0,0,39.18-56.51,0.75-84.82c-33.52-24.7-107.64-3.09-107.64-3.09
			l33.91,141.22c0,0,43.8-10.88,60.81,2.87c13.02,10.52,16.95,35.79,22.46,55.89c5.04,18.38,9.58,33.06,9.58,33.06l-5.75-47.76
			L325.76,556.41z"/>
		<path class="st4" d="M225.07,1096.52l0.03,24.74h97.9c0,0-3.49-13.04-33.4-22.01C274.57,1094.74,225.07,1096.52,225.07,1096.52z"
			/>
		<path class="st4" d="M29.19,1063.04l-14.97,19.13c0,0,44.08,34.1,56.56,38.26c5.52,1.84,34.1,0.83,34.1,0.83
			s-1.85-9.07-13.31-16.63c-3.82-2.52-13.31-5.82-13.31-5.82L29.19,1063.04z"/>
		<polygon class="st14" points="182.22,766.95 145.63,745.32 148.95,692.09 223.81,693.76 193.87,758.63 		"/>
		<circle class="st7" cx="151.91" cy="414.77" r="51.27"/>
		<path class="st7" d="M146.37,363.86c0,0,7.04-1.37,17.84,0.43c6.79,1.13,14.09,4.12,20.22,7.59c8.54,4.84,16.84,14.77,25,27.13
			c0.71,1.08,0.22,1.82-0.95,2.38l-26.23,12.82L146.37,363.86z"/>
		<path class="st10" d="M151.29,402.1c-0.05,0-0.11,0-0.16-0.01c-0.62-0.09-1.04-0.66-0.95-1.27c0.06-0.45,1.66-10.98,10.7-14.92
			c10.88-4.74,18.06,2.15,18.36,2.44c0.44,0.43,0.45,1.15,0.01,1.59c-0.44,0.44-1.15,0.45-1.59,0.01c-0.26-0.25-6.45-6.1-15.88-1.98
			c-7.9,3.44-9.36,13.08-9.37,13.18C152.32,401.69,151.84,402.1,151.29,402.1z"/>
		<circle class="st10" cx="167.92" cy="391.82" r="6.63"/>
		<path class="st10" d="M182.77,426.08c-0.75,0-1.49-0.16-2.2-0.48c-3.41-1.54-4.92-6.32-4.98-6.52l2.15-0.66
			c0.35,1.11,1.7,4.21,3.76,5.13c0.9,0.4,1.86,0.37,2.92-0.12c2.03-0.92,1.89-4.92,1.67-6.39l2.22-0.34
			c0.04,0.28,1.03,6.97-2.96,8.78C184.48,425.88,183.61,426.08,182.77,426.08z"/>
		<path class="st14" d="M77.66,1098.96l-50.36-35.26c0.69-0.99,69.7-99.7,110.22-167.77c28.78-48.35,37.86-154.58,38.94-191.43
			l61.45,1.76c-0.04,1.5-1.11,37.24-7.17,81.68c-8.4,61.61-21.99,108.52-40.39,139.44C148.65,997.42,80.54,1094.85,77.66,1098.96z"
			/>
		<path class="st14" d="M224.14,1106.74c-0.26-1.26-26.46-126.97-49.25-195.34c-9.83-29.49-22.07-58.54-32.86-84.17
			c-9.24-21.93-17.96-42.64-23.92-60.59c-9.52-28.73-12.78-69.38-13.12-73.92l61.31-4.6c0,0,0,0.01,0,0.01l0,0
			c0.78,10.29,4.12,40.93,10.17,59.16c5.19,15.66,13.46,35.29,22.22,56.08c11.23,26.65,23.95,56.86,34.53,88.6
			c23.93,71.8,50.02,196.99,51.12,202.28L224.14,1106.74z"/>
		<path class="st12" d="M237.32,713.44c0,0-11.07,2.68-34.38,2.22c-27.72-0.55-52.68-3.81-69.31-3.88
			c-9.7-0.04-32.71,1.11-32.71,1.11s4.73-36.98,5.82-77.35c0.83-30.77,1.17-73.21,3.33-94.82c1.66-16.63,9.15-40.75,21.31-51.53
			c11.76-10.42,24.99-13.62,37.69-2.59c2.81,2.44,13.5,15.01,15.64,18.59c16.44,27.39,47.71,106.17,51.56,154.67
			C239.07,695.15,237.32,713.44,237.32,713.44z"/>
		<path class="st15" d="M132.11,489.78"/>
		<path class="st15" d="M160.81,483.95"/>
		<path class="st15" d="M162.88,486.45"/>
		<path class="st4" d="M144.75,363.82c0,0,4.28,20.51-22.86,41.66c-7.69,5.99-12.42,13.46-11.87,21.95
			c0.92,14.16,11.85,29.33,11.85,29.33s-35.69-19.86-19.34-61.48C114.68,364.34,144.75,363.82,144.75,363.82z"/>
		<path class="st10" d="M218.19,852.53c-0.32,0-0.62-0.21-0.72-0.53c-0.04-0.13-3.93-12.99-14.73-40.79
			c-0.15-0.39,0.04-0.82,0.43-0.97c0.38-0.15,0.82,0.04,0.97,0.43c10.82,27.86,14.73,40.77,14.76,40.9c0.12,0.4-0.11,0.81-0.5,0.93
			C218.34,852.52,218.27,852.53,218.19,852.53z"/>
		<path class="st10" d="M200.06,803.06c-0.3,0-0.58-0.18-0.7-0.47c-0.59-1.5-1.2-3.03-1.83-4.59c-0.15-0.38,0.03-0.82,0.42-0.97
			c0.38-0.15,0.82,0.03,0.97,0.42c0.63,1.57,1.24,3.1,1.83,4.6c0.15,0.39-0.04,0.82-0.42,0.97
			C200.25,803.05,200.15,803.06,200.06,803.06z"/>
		<path class="st10" d="M193.67,786.67c-0.3,0-0.59-0.19-0.7-0.49c-4.54-12.15-8.23-23.33-8.78-26.59
			c-2.09-12.3,0.54-20.79,0.65-21.15c0.12-0.39,0.55-0.61,0.94-0.49c0.4,0.12,0.61,0.55,0.49,0.94c-0.03,0.08-2.62,8.52-0.6,20.44
			c0.54,3.18,4.2,14.25,8.71,26.32c0.14,0.39-0.05,0.82-0.44,0.96C193.85,786.65,193.76,786.67,193.67,786.67z"/>
		<path class="st10" d="M183.26,937.37c-0.33,0-0.63-0.21-0.72-0.54c-6.57-22.99-28.04-78.39-28.26-78.95
			c-0.15-0.39,0.04-0.82,0.43-0.97c0.39-0.15,0.82,0.04,0.97,0.43c0.22,0.56,21.71,56.02,28.3,79.08c0.11,0.4-0.12,0.81-0.51,0.93
			C183.4,937.36,183.33,937.37,183.26,937.37z"/>
		<path class="st7" d="M320.18,521.59c0,0,2.62,13.71,3.36,18.3c0.88,5.46,3.05,21.9,3.05,21.9l-17.47-19.41
			c0,0,3.33-2.22,4.99-7.21C315.78,530.18,315.47,525.19,320.18,521.59z"/>
		<path class="st7" d="M321.05,528.24c0,0,2.6-2.47,4.85-5.09c2.5-2.91,3.8-5.22,4.99-7.07c0.45-0.7,2.5-3.02,4.26-2.08
			c1.97,1.04,1.14,2.81,1.14,2.81s2.5-3.22,4.57-1.66c2.13,1.59,0.31,5.09,0.31,5.09s1.87,0.21,2.39,1.87c0.51,1.64,0,4.26,0,4.26
			s1.56,0.73,1.46,3.22c-0.12,2.95-3.88,11.34-6.65,16.11c-5.39,9.29-11.75,15.39-11.75,15.39l-7.59-17.05l-0.1-10.4L321.05,528.24z
			"/>
		<path class="st12" d="M222.51,616.02c-24.28,0-45.13-7.05-62.2-21.07c-17.83-14.64-44.64-53.36-47.63-57.72l35.85-24.62
			c9.99,14.54,29.52,40.63,39.39,48.74c12.82,10.53,29.44,13.56,52.29,9.53c17.11-3.02,51.24-23.4,68.73-35.54l24.81,35.71
			c-5.42,3.77-53.92,36.99-85.98,42.65C238.98,615.25,230.55,616.02,222.51,616.02z"/>
		<g>
			<path class="st16" d="M336.19,517.33c0,0-2.91,6.13-7.17,12.48"/>
			<path class="st10" d="M329.02,530.55c-0.14,0-0.29-0.04-0.42-0.13c-0.34-0.23-0.43-0.7-0.2-1.04c4.18-6.22,7.09-12.32,7.12-12.38
				c0.18-0.37,0.63-0.53,1-0.36c0.37,0.18,0.53,0.63,0.36,1c-0.03,0.06-2.98,6.26-7.23,12.57
				C329.5,530.44,329.26,530.55,329.02,530.55z"/>
		</g>
		<g>
			<path class="st16" d="M341.39,520.55c0,0-3.12,7.17-7.38,13.52"/>
			<path class="st10" d="M334.01,534.81c-0.14,0-0.29-0.04-0.42-0.13c-0.34-0.23-0.43-0.7-0.2-1.04c4.17-6.21,7.29-13.33,7.32-13.4
				c0.17-0.38,0.61-0.55,0.99-0.39c0.38,0.17,0.55,0.61,0.39,0.99c-0.03,0.07-3.2,7.31-7.45,13.64
				C334.49,534.7,334.25,534.81,334.01,534.81z"/>
		</g>
		<g>
			<path class="st16" d="M343.47,526.89c0,0-1.98,6.24-6.24,12.58"/>
			<path class="st10" d="M337.23,540.22c-0.14,0-0.29-0.04-0.42-0.13c-0.34-0.23-0.43-0.7-0.2-1.04c4.15-6.18,6.13-12.33,6.15-12.39
				c0.13-0.39,0.54-0.61,0.94-0.49c0.39,0.12,0.61,0.55,0.49,0.94c-0.08,0.26-2.06,6.41-6.33,12.77
				C337.71,540.1,337.47,540.22,337.23,540.22z"/>
		</g>
		<path class="st7" d="M219.99,462.2c0,0,4.91-0.68,6.52-1.05c3.6-0.83,6.38-4.44,9.19-3.55c1.53,0.48,0.37,4.1-1.29,6.18
			c-2.24,2.8-5.12,4.8-5.82,6.65c-1.15,3.03-1.66,7.9-2.91,10.4c-3.78,7.56-7.07,4.57-7.07,4.57l-1.11-11.32L219.99,462.2z"/>
		<path class="st10" d="M178.1,560.26c-0.16,0-0.31-0.05-0.45-0.15c-10.15-7.52-19.18-16.33-22.48-21.93
			c-0.21-0.36-0.09-0.82,0.27-1.03c0.36-0.21,0.82-0.09,1.03,0.27c3.2,5.45,12.08,14.08,22.08,21.48c0.33,0.25,0.4,0.72,0.16,1.05
			C178.55,560.16,178.32,560.26,178.1,560.26z"/>
		<path class="st10" d="M185.29,565.24c-0.14,0-0.28-0.04-0.41-0.12c-0.55-0.36-1.1-0.72-1.65-1.08c-1.22-0.81-2.43-1.65-3.62-2.5
			c-0.34-0.24-0.42-0.71-0.18-1.05c0.24-0.34,0.71-0.41,1.05-0.18c1.18,0.84,2.38,1.67,3.58,2.47c0.54,0.36,1.09,0.72,1.63,1.07
			c0.35,0.22,0.45,0.69,0.23,1.04C185.78,565.12,185.54,565.24,185.29,565.24z"/>
		<path class="st10" d="M215.07,576.19c-0.01,0-0.03,0-0.04,0c-0.51-0.03-12.75-0.81-26.47-8.8c-0.36-0.21-0.48-0.67-0.27-1.03
			c0.21-0.36,0.67-0.48,1.03-0.27c13.39,7.79,25.68,8.59,25.8,8.6c0.41,0.02,0.73,0.38,0.7,0.79
			C215.8,575.88,215.47,576.19,215.07,576.19z"/>
		<path class="st10" d="M226.52,613.83c-2.31,0-13.65-0.2-27.92-3.91c-20.98-5.45-49.28-26.02-55.44-34.24
			c-0.25-0.33-0.18-0.8,0.15-1.05c0.33-0.25,0.8-0.18,1.05,0.15c6.06,8.08,33.92,28.31,54.62,33.69
			c15.72,4.08,27.82,3.86,27.93,3.86c0.4-0.01,0.76,0.32,0.77,0.73c0.01,0.41-0.32,0.76-0.73,0.77
			C226.93,613.83,226.79,613.83,226.52,613.83z"/>
	</g>
	<path class="st10" d="M200.1,535.85c-0.31,0-0.6-0.19-0.71-0.5c-5.99-16.89-18.02-34.23-18.14-34.41
		c-0.24-0.34-0.15-0.81,0.19-1.04c0.34-0.24,0.81-0.16,1.04,0.19c0.12,0.18,12.26,17.68,18.32,34.76c0.14,0.39-0.07,0.82-0.46,0.96
		C200.27,535.84,200.19,535.85,200.1,535.85z"/>
</g>
<g>
	<path class="st8" d="M628.55,987.51l-8.74,21.44c0,0,81.08,40.04,83.07,36.9c4.69-7.41-10.48-21.02-39.43-50.35L628.55,987.51z"/>
	<path class="st7" d="M726.96,634.76c0,0,3.5-7.2,4.03-8.68c2.79-7.75,7.13-13.02,5.58-26.03c-1.73-14.54-8.99-12.4-8.99-12.4
		l-7.44,32.85l4.65,7.44L726.96,634.76z"/>
	<path class="st8" d="M681.71,940.62c0,0,29.75,12.4,37.81,34.09c7.07,19.03,5.7,27.42,1.24,30.99
		c-3.1,2.48-22.93-19.21-45.24-27.89C662.34,972.68,681.71,940.62,681.71,940.62z"/>
	<path class="st7" d="M656.28,700.43c-28.23,0-49.77-18.99-50.85-19.95l23.65-26.35c0.08,0.07,17.37,14.92,34.6,9.83
		c18.54-5.48,28.98-27.7,29.08-27.92l32.44,14.19c-0.67,1.52-16.72,37.42-51.49,47.69C667.71,699.69,661.87,700.43,656.28,700.43z"
		/>
	<path class="st7" d="M492.05,892.19L461.09,875c14.16-25.49,25.38-66.34,34.39-99.17c2.16-7.87,4.2-15.3,6.21-22.3
		c21.01-73.22,40.07-101.32,40.87-102.48l29.14,20.12l-14.57-10.06l14.64,9.96c-0.17,0.25-16.94,25.67-36.04,92.22
		c-1.95,6.81-3.97,14.15-6.1,21.91C519.62,821.66,508.28,862.98,492.05,892.19z"/>
	<path class="st9" d="M510.75,707.3c0,0,19.65,8.13,32.75,2.76c20.16-8.25,39.57-86.26,39.57-86.26s-20.35-2.37-39.57,21.8
		c-8.72,10.97-15.49,25.2-23.14,42.14C517.38,694.38,510.75,707.3,510.75,707.3z"/>
	<path class="st9" d="M506.94,873.68c0,0,21.56-184.01,50.2-230.55c14.87-24.17,37.19-26.03,52.06-3.72
		c10.96,16.45,29.13,74.37,42.14,140.07c6.71,33.87,9.3,94.2,9.3,94.2h-78.09H506.94z"/>
	<polygon class="st4" points="661.01,959.76 533.82,933.49 556.77,867.91 614.7,850.92 708.27,811.59 	"/>
	<g>
		<circle class="st7" cx="587.08" cy="559.95" r="49.87"/>
		<path class="st7" d="M592.67,510.45c0,0,6.97,0.2,16.84,4.21c6.2,2.52,12.49,6.91,17.57,11.51c7.07,6.41,12.84,17.6,17.95,31.08
			c0.45,1.18-0.18,1.77-1.41,2.06l-27.62,6.58L592.67,510.45z"/>
		<path class="st8" d="M617.63,545.61c-0.37,0-0.72-0.22-0.87-0.59c-0.12-0.29-2.98-7.19-12.01-7.26c-0.03,0-0.07,0-0.1,0
			c-7.49,0-12.06,7.13-12.1,7.2c-0.28,0.44-0.85,0.57-1.28,0.29c-0.44-0.27-0.57-0.85-0.29-1.28c0.21-0.33,5.17-8.08,13.68-8.08
			c0.04,0,0.08,0,0.11,0c10.32,0.09,13.7,8.36,13.73,8.44c0.19,0.48-0.05,1.02-0.52,1.2C617.86,545.59,617.75,545.61,617.63,545.61z
			"/>
		<circle class="st8" cx="608.15" cy="543.31" r="6.05"/>
		<path class="st8" d="M622.28,577.76c-0.06,0-0.12,0-0.19-0.01c-5.14-0.23-5.01-10.05-4.98-11.18c0.02-0.51,0.46-0.92,0.96-0.9
			c0.52,0.01,0.92,0.44,0.91,0.96c-0.07,2.36,0.38,9.14,3.2,9.26c0.03,0,0.06,0,0.09,0c2.77,0,3.86-5.83,4.02-7.9
			c0.04-0.51,0.48-0.88,1-0.85c0.51,0.04,0.9,0.49,0.85,1C628.11,568.54,627.32,577.76,622.28,577.76z"/>
	</g>
	<path class="st4" d="M673.39,983.08c-0.21-0.06-24.86-6.9-99.87-22.5c-12.04-2.5-22.44-4.7-31.6-6.63
		c-34.48-7.27-50.21-10.59-69.07-12.84c-26.65-3.19-46.72-19.71-51.11-42.09c-3.89-19.8,5.61-38.73,24.81-49.39
		c13.65-7.59,35.69-9.61,98.87,5.15c33.63,7.86,63.95,17.11,65.23,17.5l-12.3,40.18c66.35,14,88.26,20.12,89.22,20.39L673.39,983.08
		z M469.4,896.31L469.4,896.31L469.4,896.31z"/>
	<path class="st4" d="M674.99,1007.47l-51.02-10.99c0.77-3.58,1.67-8.24,2.72-13.63c3.78-19.55,9.5-49.08,19.02-78.73
		c4.08-12.68,8.67-25.5,13.26-37.66c-10.69,17.21-21.7,35.96-31.27,53.3l-45.68-25.23c9.67-17.5,59.3-105.94,87.2-128.06
		c23.26-18.45,41.91-10.93,48.85-6.83c14.92,8.79,22.01,27.3,18.51,48.3c-1.2,7.22-5.17,17.29-14.04,39.38
		c-8.41,20.95-18.87,47.03-27.15,72.78c-8.57,26.66-13.93,54.35-17.47,72.67C676.83,998.44,675.88,1003.35,674.99,1007.47z"/>
	<path class="st1" d="M731.4,662.93c0,0,0-22.9-3.82-52.01c-4.05-30.88-7.79-80.42-7.79-80.42s-33.72,14.63-72.53,22.27
		c-26.69,5.25-80.8,3.82-80.8,3.82s1.16,44.85,2.52,81.54c0.74,20.08,5.44,53.92,5.44,53.92s43.58-0.64,95.12-9.54
		C709.67,675.55,731.4,662.93,731.4,662.93z"/>
	<g>
		<path class="st7" d="M722.86,613.15c-3.38-0.05-8.44,0.27-9.62-1.24c-1.09-1.4-0.36-2.72-0.36-2.72s-3.25,0.17-3.63-2.6
			c-0.34-2.45,0.8-3.42,0.8-3.42s-2.43-0.44-2.7-2.83c-0.32-2.93,1.89-3.75,1.89-3.75s-1.86-1.72,0.24-4.5
			c1.25-1.65,4.64-2.25,7.5-3.08c3.26-0.94,8.52-1.54,10.68-1.51c1.62,0.02,4.21,0.37,4.73,2.42c0.23,0.92-0.09,1.65-0.52,2.18
			c-0.42,0.53-0.3,1.31,0.27,1.58c0.94,0.45,2,1.2,2.17,2.32c0.21,1.48-0.67,2.53-1.42,3.13c-0.36,0.29-0.34,0.84,0.04,1.06
			c0.87,0.51,1.99,1.55,1.96,3.55c-0.03,1.9-1.81,3.66-1.81,3.66s2.34,1.17,1.16,4C733.25,613.81,729.15,613.24,722.86,613.15z"/>
		<path class="st8" d="M713.2,609.66c-0.3,0-0.58-0.2-0.67-0.51c-0.11-0.37,0.11-0.76,0.48-0.86c2.77-0.8,6.18-1.41,9.59-1.73
			c5.73-0.54,8.93-0.41,10.61-0.2c0.38,0.05,0.66,0.4,0.61,0.78c-0.05,0.38-0.37,0.67-0.78,0.61c-1.31-0.17-4.4-0.35-10.3,0.2
			c-3.33,0.32-6.65,0.92-9.34,1.69C713.32,609.65,713.26,609.66,713.2,609.66z"/>
		<path class="st8" d="M709.85,603.49c-0.28,0-0.55-0.17-0.66-0.45c-0.13-0.36,0.05-0.76,0.41-0.9c2.04-0.76,6.39-1.81,10.76-2.32
			c6.44-0.75,11.64-0.92,12.33-0.76c0.37,0.09,0.61,0.46,0.52,0.84c-0.09,0.37-0.45,0.59-0.83,0.53c-0.54-0.09-5.11,0-11.86,0.79
			c-4.21,0.49-8.52,1.52-10.43,2.24C710.02,603.48,709.94,603.49,709.85,603.49z"/>
		<path class="st8" d="M709.26,596.95c-0.28,0-0.54-0.17-0.65-0.44c-0.14-0.36,0.04-0.76,0.4-0.91c2.65-1.04,7.65-2.04,10.35-2.42
			c5.56-0.78,11.24-1.16,12.13-1.11c0.39,0.02,0.68,0.35,0.66,0.74c-0.02,0.39-0.37,0.7-0.74,0.66c-0.84-0.03-6.47,0.34-11.86,1.1
			c-3.12,0.44-7.72,1.43-10.03,2.34C709.43,596.94,709.35,596.95,709.26,596.95z"/>
	</g>
	<path class="st1" d="M670.64,830.14c-0.13,0-0.26-0.03-0.39-0.08c-0.47-0.21-0.68-0.76-0.46-1.23c0.54-1.19,1.08-2.37,1.62-3.53
		l1.29-2.78c8.75-18.73,16.38-32.8,16.46-32.94c0.25-0.45,0.81-0.62,1.26-0.37c0.45,0.25,0.62,0.81,0.37,1.26
		c-0.08,0.14-7.68,14.16-16.41,32.84l-1.28,2.77c-0.54,1.16-1.07,2.34-1.61,3.53C671.33,829.93,670.99,830.14,670.64,830.14z"/>
	<path class="st1" d="M666.95,838.42c-0.13,0-0.25-0.03-0.37-0.08c-0.47-0.21-0.69-0.76-0.48-1.23l1.59-3.61
		c0.21-0.47,0.76-0.68,1.23-0.47c0.47,0.21,0.68,0.76,0.47,1.23l-1.59,3.6C667.65,838.21,667.31,838.42,666.95,838.42z"/>
	<path class="st1" d="M628.21,972.95c-0.05,0-0.1,0-0.16-0.01c-0.51-0.09-0.85-0.57-0.76-1.07c0.05-0.31,5.38-31.54,23.16-92.86
		c3.16-10.88,7.85-23.66,13.96-37.97c0.2-0.47,0.75-0.7,1.22-0.49c0.47,0.2,0.69,0.75,0.49,1.22
		c-6.08,14.24-10.75,26.94-13.88,37.76c-17.75,61.2-23.06,92.34-23.11,92.65C629.05,972.63,628.65,972.95,628.21,972.95z"/>
	<path class="st1" d="M638.33,923.37c-0.1,0-0.2-0.01-0.29-0.05c-0.19-0.06-18.76-6.23-41.56-14.68l-1.91-0.71
		c-28.41-10.54-60.6-22.49-84.59-30.1c-0.49-0.16-0.76-0.68-0.61-1.17c0.15-0.49,0.68-0.76,1.17-0.61
		c24.03,7.63,56.25,19.59,84.68,30.13l1.91,0.71c22.76,8.44,41.31,14.6,41.49,14.66c0.49,0.16,0.75,0.69,0.59,1.18
		C639.08,923.12,638.72,923.37,638.33,923.37z"/>
	<path class="st1" d="M505.88,876.5c-0.09,0-0.18-0.01-0.27-0.04c-9.53-2.93-16.78-4.81-21.54-5.58c-17-2.74-27.05,1.74-27.15,1.79
		c-0.47,0.22-1.02,0.01-1.24-0.46c-0.21-0.47-0.01-1.02,0.46-1.24c0.42-0.2,10.62-4.78,28.22-1.93c4.91,0.79,12.04,2.64,21.79,5.64
		c0.49,0.15,0.77,0.67,0.62,1.16C506.65,876.25,506.28,876.5,505.88,876.5z"/>
	<path class="st8" d="M538.55,687.44c-0.07,0-0.15-0.01-0.23-0.03c-0.5-0.13-0.8-0.63-0.67-1.13c1.97-7.74,7.06-26.44,11.71-32.95
		c0.3-0.42,0.88-0.51,1.3-0.22c0.42,0.3,0.52,0.88,0.22,1.3c-3.1,4.34-7.37,16.43-11.43,32.33
		C539.34,687.16,538.96,687.44,538.55,687.44z"/>
	<path class="st8" d="M533.18,712.23c-0.06,0-0.12-0.01-0.17-0.02c-0.51-0.09-0.84-0.58-0.74-1.09c0.02-0.09,1.69-8.92,4.23-19.66
		c0.12-0.5,0.61-0.82,1.12-0.69c0.5,0.12,0.81,0.62,0.69,1.12c-2.52,10.7-4.19,19.49-4.21,19.57
		C534.01,711.92,533.62,712.23,533.18,712.23z"/>
	<g>
		<path class="st13" d="M893.47,754.94l-28.94-12.91c1.68-3.77,16.69-37.22,26.49-51.92c3.99-5.98,8-15.01,11.87-23.74
			c8.56-19.28,15.96-35.93,30.05-41.65l11.93,29.35c0.48-0.2,0.73-0.38,0.73-0.38c-3.6,2.68-9.95,16.99-13.75,25.54
			c-4.42,9.94-8.98,20.22-14.47,28.45C910.35,718.26,897.74,745.38,893.47,754.94z"/>
		<path class="st8" d="M855.87,916.65l-0.83,23.14c0,0-90.37,3.27-90.9-0.41c-1.24-8.68,18.18-14.87,56.61-29.75L855.87,916.65z"/>
		<path class="st8" d="M820.75,893.1l-0.83,23.14c0,0-90.37,3.27-90.9-0.41c-1.24-8.68,18.18-14.87,56.61-29.75L820.75,893.1z"/>
		<path class="st5" d="M1042.63,824.1c0,0,19.83,61.98-21.07,79.33c-38.27,16.24-112.8,6.2-126.43-34.71
			c-3.35-10.06,18.59-49.58,18.59-49.58L1042.63,824.1z"/>
		<g>
			<circle class="st11" cx="921.96" cy="551.4" r="49.58"/>
			<path class="st11" d="M913.81,502.56c0,0-6.91,0.56-16.49,5.06c-6.03,2.83-12.04,7.52-16.83,12.35
				c-6.68,6.74-11.82,18.15-16.19,31.79c-0.38,1.19,0.27,1.75,1.51,1.97l27.77,5.09L913.81,502.56z"/>
			<path class="st8" d="M890.83,538.78c-0.1,0-0.2-0.01-0.3-0.05c-0.49-0.16-0.75-0.69-0.59-1.18c0.03-0.09,2.95-8.48,13.19-9.1
				c8.52-0.51,13.9,6.98,14.12,7.29c0.29,0.42,0.19,1-0.23,1.3c-0.41,0.29-1,0.19-1.3-0.22c-0.05-0.07-4.93-6.97-12.49-6.51
				c-8.96,0.55-11.44,7.54-11.54,7.84C891.58,538.54,891.21,538.78,890.83,538.78z"/>
			<circle class="st8" cx="900.17" cy="535.99" r="6.02"/>
			<path class="st8" d="M887.74,570.93c-4.83,0-6.07-8.86-6.12-9.24c-0.07-0.51,0.29-0.98,0.8-1.05c0.49-0.07,0.98,0.29,1.05,0.8
				c0.28,2.06,1.65,7.95,4.49,7.62c2.78-0.27,2.87-7.01,2.68-9.35c-0.04-0.51,0.34-0.96,0.85-1c0.52-0.01,0.96,0.34,1,0.85
				c0.09,1.11,0.74,10.86-4.36,11.36C888,570.93,887.87,570.93,887.74,570.93z"/>
		</g>
		<path class="st13" d="M1048.82,838.97c0,0-29.75,9.92-69.41,9.92c-30.67,0-73.13-3.72-73.13-3.72s2.48-19.79,2.48-64.46
			c0-33.47,4.16-59.56,6.2-89.25c2.07-30.16,2.68-53.74,12.81-68.59c6.2-9.09,16.5-8.78,29.34-5.78
			c12.4,2.89,28.1,27.27,33.47,35.95c18.6,30.05,38.43,73.13,50.82,127.67C1050.07,818.91,1048.82,838.97,1048.82,838.97z"/>
		<path class="st5" d="M857.42,923.77l-51.03-10.93c1.07-5.01,2.2-10.16,3.35-15.39c4.89-22.3,9.95-45.36,12.37-65.33
			c1.22-10.09,1.86-22.2,2.47-33.91c0.91-17.38,1.85-35.35,4.82-49.82c6.8-33.18,24.47-41.39,38.09-42.44
			c16.79-1.28,30.98,7.36,42.26,25.7c6.58,10.7,12.42,24.76,19.19,41.04c2.1,5.06,4.32,10.4,6.7,15.96
			c8.88,20.79,25.06,42.84,37.24,56.54c14.14,15.91,32.97,5.98,33.76,5.55l24.86,45.88c-19.31,10.46-64.57,20.42-97.63-16.76
			c-7.23-8.14-31.95-37.3-46.22-70.72c-2.44-5.72-4.73-11.22-6.9-16.43c-1.02-2.45-2.07-4.99-3.15-7.55
			c-0.38,5.66-0.67,11.17-0.91,15.78c-0.66,12.58-1.34,25.6-2.78,37.45c-2.72,22.44-8.05,46.74-13.21,70.24
			C859.58,913.78,858.47,918.84,857.42,923.77z"/>
		<path class="st5" d="M819.97,903.8l-43.9-15.62c11.89-33.39,17.26-70.08,21.58-99.57c6.38-43.59,10.24-69.9,33.09-77.51
			c8.87-2.96,18.11-2.12,26.02,2.34c13.57,7.66,17.93,22.95,18.95,27.45l-45.39,10.21c2.09,2.88,8.75,6.32,15.15,4.2
			c4.33-1.44,6.66-4.17,7.2-5.1c-3.09,5.37-6.32,27.44-8.91,45.17C839.14,826.87,833.4,866.08,819.97,903.8z"/>
		<path class="st5" d="M968.53,909.08c-33.09,0-61.18-13.62-80.65-39.58c-19.63-26.17-46.95-78.2-48.1-80.4l46.23-24.22
			c0.26,0.5,26.52,50.5,43.62,73.31c7.7,10.26,21.62,23.21,53.71,17.27l9.5,51.31C984.49,908.32,976.37,909.08,968.53,909.08z"/>
		<path class="st7" d="M879.6,705.98c-5.54,0-11.13-0.47-16.69-1.55c-61.88-11.93-99.75-73.5-101.33-76.11l25.51-15.43
			c0.31,0.5,32.75,52.88,81.46,62.27c29.16,5.62,64.74-13.78,76-21.73l17.2,24.36C959.92,679.06,921.28,705.98,879.6,705.98z"/>
		<g>
			<path class="st7" d="M750.08,608.41c2.47-2.68,4.17-2.11,4.17-2.11s0.02-2.02,1.92-3.32c1.9-1.29,4.91-1.14,4.91-1.14
				s0.85-1.7,2.48-2.51c1.93-0.96,7.83,0.2,7.83,0.2l8.01,0.36c3.23,3.17,5.92,8.43,8.38,12.55c1.47,2.45,4.35,8.24,9.22,13.89
				c4.56,5.29-4.01,10.24-16.72,13.31c-6.39,1.54-11.59-1.13-14.8-5.45c-3.6-4.84-6.24-9.5-6.24-9.5s-1.99,2.31-4.45,0.61
				C752.35,623.59,747.61,611.08,750.08,608.41z"/>
			<path class="st7" d="M785.23,608.97c0,0-2.52-5.97-8.65-13.62c-4.76-5.94-10.31-11.33-12.25-12.89c-0.9-0.73-3.24-2.04-4.72-0.89
				c-1.89,1.46-0.42,3.39,1.07,5.49c2.98,4.22,7.21,12.41,10.27,17.56l5.17,9.28L785.23,608.97z"/>
			<path class="st8" d="M763.97,607.93c-0.12,0-0.24-0.03-0.35-0.1c-0.6-0.35-3.15-0.35-4.38-0.35c-0.63,0-1.13,0-1.37-0.03
				c-2.93-0.31-3.73-0.78-3.94-0.97c-0.29-0.26-0.31-0.7-0.06-0.99c0.24-0.27,0.66-0.31,0.94-0.09c0.07,0.04,0.74,0.4,3.21,0.66
				c0.21,0.02,0.66,0.02,1.22,0.02c2.28,0,4.23,0.05,5.08,0.55c0.33,0.19,0.45,0.62,0.25,0.96
				C764.44,607.8,764.21,607.93,763.97,607.93z"/>
			<path class="st8" d="M769.97,603.52c-0.12,0-0.24-0.03-0.35-0.1c-0.54-0.31-1.58-0.29-2.7-0.27c-0.6,0.01-1.22,0.02-1.84-0.01
				c-2.91-0.17-4.18-0.62-4.23-0.64c-0.36-0.13-0.55-0.53-0.42-0.89c0.13-0.37,0.54-0.56,0.89-0.43c0.01,0,1.17,0.4,3.84,0.56
				c0.58,0.03,1.17,0.02,1.73,0.01c1.32-0.03,2.56-0.05,3.43,0.46c0.33,0.19,0.45,0.62,0.25,0.96
				C770.44,603.4,770.21,603.52,769.97,603.52z"/>
			<path class="st8" d="M759.18,625.66c-0.24,0-0.47-0.12-0.6-0.35c-2.37-4.06-4.3-9.57-4.38-9.8c-0.13-0.36,0.07-0.76,0.43-0.89
				c0.37-0.12,0.76,0.07,0.89,0.43c0.02,0.05,1.97,5.62,4.27,9.56c0.19,0.33,0.08,0.76-0.25,0.96
				C759.42,625.63,759.3,625.66,759.18,625.66z"/>
			<path class="st8" d="M773.82,599.38c-0.03,0-0.06,0-0.09-0.01c-0.01,0-1.57-0.2-2.69-0.13c-1.63,0.11-2.89,0.2-3.82,0.05
				c-0.38-0.06-0.64-0.42-0.58-0.8c0.06-0.38,0.41-0.64,0.8-0.58c0.76,0.12,2.02,0.04,3.46-0.06c1.3-0.09,2.93,0.13,3,0.14
				c0.38,0.05,0.65,0.4,0.6,0.79C774.46,599.13,774.16,599.38,773.82,599.38z"/>
		</g>
		<path class="st13" d="M882.73,711.73c-4.28,0-8.59-0.29-12.91-0.92c-63.98-9.32-105.53-70.42-107.27-73.02l30.98-20.73
			c0.31,0.46,34.26,49.96,81.67,56.86c33.3,4.85,71.72-24.15,72.1-24.44l22.87,29.43C968.3,680.38,927.4,711.73,882.73,711.73z"/>
		<path class="st13" d="M927.9,620.2l21.52-12.49c0.74-0.43,1.67-0.26,2.22,0.39l10,11.89l-33.05,19.42l-7.54-5.16l2.19-15.96
			c0.08-0.6,0.8-0.88,1.26-0.48l2.76,2.34C927.43,620.3,927.69,620.32,927.9,620.2z"/>
		<path class="st8" d="M893.06,712.62c-0.33,0-0.62-0.23-0.69-0.57c-0.07-0.38,0.18-0.74,0.56-0.82
			c0.21-0.04,21.47-4.09,35.79-10.49c24.01-10.73,38.67-26.93,38.81-27.1c0.26-0.29,0.7-0.31,0.99-0.05
			c0.29,0.26,0.31,0.7,0.05,0.99c-0.15,0.16-15,16.59-39.28,27.44c-14.47,6.46-35.89,10.54-36.1,10.58
			C893.14,712.62,893.1,712.62,893.06,712.62z"/>
		<path class="st8" d="M901.73,672.02c-0.34,0-0.64-0.25-0.69-0.59c-0.06-0.38,0.2-0.74,0.58-0.8c0.28-0.04,28.07-4.54,41.99-24.5
			c0.22-0.32,0.66-0.39,0.97-0.17c0.32,0.22,0.39,0.66,0.17,0.97c-14.26,20.46-42.64,25.03-42.92,25.08
			C901.8,672.02,901.77,672.02,901.73,672.02z"/>
		<path class="st8" d="M932.3,639.68l-5.19-17.91c-0.07-0.25,0.07-0.51,0.32-0.58c0.25-0.08,0.5,0.07,0.58,0.32l4.92,16.98
			c1.49-0.55,6.57-2.66,13.66-8.14c8.03-6.2,13.21-11.97,13.26-12.03c0.17-0.19,0.47-0.21,0.66-0.04c0.19,0.17,0.21,0.47,0.04,0.66
			c-0.05,0.06-5.29,5.89-13.39,12.14c-8.6,6.64-14.17,8.37-14.41,8.44L932.3,639.68z"/>
		<path class="st8" d="M925.63,636.89l-4.22-2.77c-0.21-0.14-0.27-0.43-0.13-0.65c0.14-0.21,0.43-0.27,0.65-0.13l3.01,1.98
			l2.16-13.75c0.04-0.25,0.28-0.42,0.53-0.39c0.25,0.04,0.43,0.28,0.39,0.53L925.63,636.89z"/>
		<path class="st8" d="M820.51,791.93c-0.03,0-0.05,0-0.08,0c-0.51-0.04-0.9-0.49-0.85-1c1.8-22.65,3.68-45.3,5.23-51.64
			c2.73-11.21,6.22-17.7,10.98-20.42c0.44-0.25,1.01-0.1,1.27,0.35c0.25,0.45,0.1,1.02-0.35,1.27c-4.29,2.45-7.49,8.57-10.09,19.24
			c-1.51,6.21-3.46,29.76-5.18,51.35C821.39,791.56,820.99,791.93,820.51,791.93z"/>
		<path class="st8" d="M819.95,799.01c-0.03,0-0.05,0-0.07,0c-0.51-0.04-0.9-0.49-0.86-1l0.17-2.16c0.04-0.51,0.51-0.91,1-0.86
			c0.51,0.04,0.9,0.49,0.86,1l-0.17,2.16C820.83,798.64,820.43,799.01,819.95,799.01z"/>
		<path class="st8" d="M819.31,807.09c-0.03,0-0.05,0-0.08,0c-0.51-0.04-0.9-0.49-0.85-1l0.32-4.05c0.04-0.52,0.53-0.88,1-0.86
			c0.51,0.04,0.9,0.49,0.86,1l-0.32,4.05C820.19,806.72,819.79,807.09,819.31,807.09z"/>
		<path class="st8" d="M808.05,900.64c-0.05,0-0.09,0-0.14-0.01c-0.51-0.08-0.86-0.55-0.78-1.06c0.06-0.42,6.48-42.45,8.67-63.48
			c0.68-6.54,1.46-16,2.07-23.51l0.17-2.18c0.04-0.52,0.5-0.89,1-0.85c0.51,0.04,0.9,0.49,0.85,1l-0.17,2.18
			c-0.6,7.52-1.39,16.99-2.07,23.56c-2.19,21.08-8.62,63.15-8.68,63.57C808.89,900.31,808.5,900.64,808.05,900.64z"/>
		<path class="st8" d="M873.43,847.96c-0.04,0-0.08,0-0.13-0.01c-0.51-0.07-0.87-0.54-0.8-1.05c0.07-0.51,6.81-50.66,6.81-68.98
			c0-0.52,0.42-0.93,0.93-0.93s0.93,0.42,0.93,0.93c0,18.44-6.76,68.72-6.83,69.23C874.29,847.62,873.89,847.96,873.43,847.96z"/>
		<path class="st8" d="M909.99,885.35c-0.31,0-0.61-0.15-0.78-0.43c-7.44-11.62-14.25-28.86-20.26-44.07
			c-4.68-11.84-8.73-22.07-11.95-26.77c-0.29-0.43-0.18-1,0.24-1.3c0.43-0.29,1.01-0.18,1.3,0.24c3.34,4.87,7.42,15.19,12.14,27.14
			c5.98,15.13,12.76,32.28,20.1,43.75c0.28,0.43,0.15,1.01-0.28,1.29C910.34,885.31,910.17,885.35,909.99,885.35z"/>
		<path class="st8" d="M992.33,857.02c-6.41,0-14.43-7.12-14.78-7.44c-0.38-0.34-0.41-0.93-0.07-1.32c0.34-0.38,0.94-0.41,1.32-0.07
			c0.09,0.08,8.71,7.74,14.42,6.9c0.5-0.07,0.98,0.27,1.06,0.78c0.08,0.51-0.27,0.98-0.78,1.06
			C993.11,857,992.73,857.02,992.33,857.02z"/>
	</g>
</g>
<path class="st1" d="M1139.37,593.72l0.79,99.9c0,0-1.18,17.11-18.88,38.35c-25.16,30.19-78.47,61.95-157.52,72.57l-2.95-91.45
	c0,0,17.02-2.98,36.58-8.85c41.3-12.39,65.91-25.95,90.86-42.48c17.44-11.56,29.17-21.81,36.58-33.04
	C1133.97,614.86,1139.37,593.72,1139.37,593.72z"/>
<path class="st4" d="M1084.7,707.49c-0.31,0-0.61-0.16-0.77-0.45c-0.24-0.43-0.08-0.97,0.34-1.21
	c44.1-24.61,72.41-58.19,81.89-97.12c10.29-42.28-4.35-74.53-9.08-83.4c-19.37-36.31-54.01-70.17-103.63-113.02
	c-0.37-0.32-0.41-0.88-0.09-1.25c0.32-0.37,0.88-0.41,1.25-0.09c49.77,42.98,84.54,76.97,104.04,113.53
	c4.81,9.01,19.68,41.76,9.24,84.66c-9.6,39.42-38.21,73.39-82.75,98.25C1085,707.46,1084.85,707.49,1084.7,707.49z"/>
<path class="st4" d="M1013.9,757.05c-0.43,0-0.8-0.31-0.87-0.75c-0.08-0.48,0.25-0.94,0.74-1.02
	c67.96-10.92,109.06-43.53,131.57-68.97c24.4-27.57,32.84-52.89,32.92-53.15c0.15-0.46,0.65-0.72,1.12-0.57
	c0.46,0.15,0.72,0.65,0.57,1.12c-0.08,0.25-8.6,25.87-33.22,53.71c-22.7,25.68-64.15,58.6-132.68,69.61
	C1014,757.05,1013.95,757.05,1013.9,757.05z"/>
</svg>
